<svg xmlns="http://www.w3.org/2000/svg" height="512pt" version="1.1" viewBox="0 0 512.00013 512" width="512pt">
<g id="surface1">
<path d="M 304.441406 143.375 C 305.613281 148.1875 306.613281 153.101562 307.425781 158.117188 C 307.804688 160.449219 308.132812 162.808594 308.433594 165.183594 C 310.640625 164.257812 312.847656 163.363281 315.058594 162.523438 C 319.808594 160.71875 324.5625 159.128906 329.316406 157.738281 C 330.554688 150.523438 331.25 143.097656 331.25 135.5 C 331.25 132.390625 331.128906 129.308594 330.90625 126.257812 C 328.15625 127.589844 325.425781 129.027344 322.730469 130.578125 C 316.148438 134.382812 310.066406 138.695312 304.441406 143.375 Z M 304.441406 143.375 " fill="currentcolor" />
<path d="M 353.765625 86.65625 C 367.921875 83.351562 382.984375 81.585938 398.871094 81.371094 C 396.140625 59.398438 391.226562 44.054688 390.753906 42.613281 C 388.699219 36.351562 382.871094 32.285156 376.507812 32.285156 C 375.488281 32.285156 374.457031 32.390625 373.421875 32.605469 C 371.9375 32.917969 356.199219 36.332031 335.808594 44.953125 C 341.195312 54.585938 345.777344 64.320312 349.476562 74.054688 C 351.066406 78.253906 352.492188 82.453125 353.765625 86.65625 Z M 353.765625 86.65625 " fill="currentcolor" />
<path d="M 251.597656 366.480469 C 248.382812 370.417969 245.058594 374.171875 241.636719 377.757812 C 244.171875 384.617188 247.28125 391.398438 251.082031 397.980469 C 252.636719 400.675781 254.28125 403.28125 256 405.8125 C 257.71875 403.28125 259.363281 400.675781 260.921875 397.980469 C 264.71875 391.398438 267.828125 384.621094 270.363281 377.757812 C 266.941406 374.171875 263.617188 370.417969 260.40625 366.480469 C 258.914062 364.648438 257.445312 362.769531 256 360.863281 C 254.554688 362.769531 253.089844 364.648438 251.597656 366.480469 Z M 251.597656 366.480469 " fill="currentcolor" />
<path d="M 286.898438 99.019531 C 289.566406 103.636719 292.003906 108.425781 294.21875 113.363281 C 298.609375 110.195312 303.113281 107.265625 307.730469 104.601562 C 313.339844 101.363281 319.183594 98.476562 325.226562 95.910156 C 321.144531 82.269531 315.34375 69.640625 308.949219 58.382812 C 297.785156 64.933594 286.449219 72.96875 276.09375 82.738281 C 280.0625 87.992188 283.671875 93.425781 286.898438 99.019531 Z M 286.898438 99.019531 " fill="currentcolor" />
<path d="M 260.40625 145.519531 C 263.617188 141.582031 266.941406 137.828125 270.363281 134.246094 C 267.828125 127.378906 264.71875 120.601562 260.921875 114.019531 C 259.363281 111.324219 257.71875 108.71875 256 106.1875 C 254.28125 108.71875 252.636719 111.324219 251.078125 114.019531 C 247.28125 120.601562 244.171875 127.378906 241.636719 134.242188 C 245.058594 137.828125 248.382812 141.582031 251.597656 145.519531 C 253.089844 147.351562 254.554688 149.230469 256 151.136719 C 257.445312 149.230469 258.914062 147.351562 260.40625 145.519531 Z M 260.40625 145.519531 " fill="currentcolor" />
<path d="M 361.25 135.5 C 361.25 140.832031 360.96875 146.195312 360.414062 151.585938 C 365.804688 151.03125 371.167969 150.75 376.5 150.75 C 382.960938 150.75 389.464844 151.15625 396.003906 151.964844 C 399.285156 138.113281 400.574219 124.277344 400.664062 111.332031 C 387.71875 111.425781 373.886719 112.710938 360.03125 115.992188 C 360.839844 122.53125 361.25 129.039062 361.25 135.5 Z M 361.25 135.5 " fill="currentcolor" />
<path d="M 162.523438 74.054688 C 166.222656 64.320312 170.804688 54.585938 176.1875 44.953125 C 155.800781 36.335938 140.0625 32.917969 138.578125 32.605469 C 137.546875 32.386719 136.511719 32.285156 135.488281 32.285156 C 132.820312 32.285156 130.242188 33.003906 128 34.296875 C 124.898438 36.085938 122.4375 38.980469 121.246094 42.609375 C 120.773438 44.054688 115.863281 59.394531 113.132812 81.367188 C 129.019531 81.585938 144.078125 83.351562 158.234375 86.652344 C 159.507812 82.453125 160.933594 78.253906 162.523438 74.054688 Z M 162.523438 74.054688 " fill="currentcolor" />
<path d="M 381.421875 189.269531 C 382.976562 186.574219 384.40625 183.847656 385.738281 181.09375 C 382.691406 180.875 379.609375 180.75 376.5 180.75 C 368.898438 180.75 361.472656 181.445312 354.261719 182.683594 C 352.867188 187.4375 351.28125 192.195312 349.476562 196.945312 C 348.636719 199.152344 347.742188 201.359375 346.816406 203.566406 C 354.308594 204.511719 361.59375 205.828125 368.640625 207.542969 C 373.3125 201.917969 377.621094 195.84375 381.421875 189.269531 Z M 381.421875 189.269531 " fill="currentcolor" />
<path d="M 349.476562 437.945312 C 345.777344 447.683594 341.195312 457.414062 335.8125 467.046875 C 356.203125 475.667969 371.9375 479.082031 373.421875 479.394531 C 374.453125 479.609375 375.488281 479.714844 376.507812 479.714844 C 382.867188 479.714844 388.699219 475.648438 390.753906 469.386719 C 391.226562 467.945312 396.140625 452.601562 398.867188 430.628906 C 382.980469 430.414062 367.921875 428.648438 353.765625 425.347656 C 352.492188 429.546875 351.070312 433.75 349.476562 437.945312 Z M 349.476562 437.945312 " fill="currentcolor" />
<path d="M 256 451.535156 C 252.796875 454.542969 249.460938 457.46875 245.980469 460.304688 C 237.90625 466.890625 229.074219 473.027344 219.59375 478.675781 C 232.941406 496.335938 244.863281 507.160156 245.992188 508.175781 C 248.839844 510.726562 252.421875 512 256 512 C 259.578125 512 263.15625 510.726562 266.007812 508.175781 C 267.136719 507.160156 279.058594 496.335938 292.40625 478.675781 C 282.925781 473.027344 274.09375 466.890625 266.019531 460.308594 C 262.539062 457.46875 259.203125 454.542969 256 451.535156 Z M 256 451.535156 " fill="currentcolor" />
<path d="M 256 60.460938 C 259.203125 57.457031 262.539062 54.53125 266.019531 51.691406 C 274.089844 45.109375 282.925781 38.96875 292.40625 33.320312 C 279.054688 15.664062 267.136719 4.839844 266.007812 3.824219 C 263.15625 1.273438 259.578125 0 256 0 C 252.421875 0 248.84375 1.273438 245.992188 3.824219 C 244.863281 4.839844 232.941406 15.664062 219.59375 33.320312 C 229.074219 38.972656 237.90625 45.109375 245.980469 51.691406 C 249.460938 54.53125 252.796875 57.460938 256 60.460938 Z M 256 60.460938 " fill="currentcolor" />
<path d="M 158.230469 425.347656 C 144.078125 428.648438 129.019531 430.414062 113.132812 430.628906 C 115.863281 452.601562 120.773438 467.941406 121.246094 469.386719 C 122.4375 473.019531 124.898438 475.910156 128 477.699219 C 130.242188 478.996094 132.820312 479.714844 135.492188 479.714844 C 136.511719 479.714844 137.542969 479.609375 138.578125 479.394531 C 140.0625 479.078125 155.800781 475.664062 176.1875 467.046875 C 170.804688 457.414062 166.222656 447.683594 162.523438 437.945312 C 160.929688 433.75 159.507812 429.546875 158.230469 425.347656 Z M 158.230469 425.347656 " fill="currentcolor" />
<path d="M 467.046875 176.191406 C 475.664062 155.800781 479.082031 140.0625 479.394531 138.578125 C 480.960938 131.09375 476.652344 123.628906 469.386719 121.246094 C 467.945312 120.773438 452.609375 115.863281 430.640625 113.132812 C 430.492188 124.167969 429.589844 134.886719 427.925781 145.167969 C 427.207031 149.601562 426.339844 153.957031 425.34375 158.230469 C 429.542969 159.507812 433.746094 160.929688 437.945312 162.527344 C 447.683594 166.226562 457.414062 170.804688 467.046875 176.191406 Z M 467.046875 176.191406 " fill="currentcolor" />
<path d="M 346.816406 308.433594 C 347.742188 310.640625 348.636719 312.847656 349.476562 315.054688 C 351.28125 319.808594 352.871094 324.5625 354.261719 329.316406 C 361.472656 330.554688 368.902344 331.25 376.5 331.25 C 379.609375 331.25 382.691406 331.128906 385.742188 330.90625 C 384.40625 328.15625 382.972656 325.425781 381.421875 322.730469 C 377.621094 316.15625 373.3125 310.082031 368.640625 304.457031 C 361.59375 306.171875 354.308594 307.488281 346.816406 308.433594 Z M 346.816406 308.433594 " fill="currentcolor" />
<path d="M 405.8125 256 C 403.28125 254.28125 400.679688 252.636719 397.984375 251.078125 C 391.402344 247.28125 384.625 244.167969 377.761719 241.632812 C 374.175781 245.054688 370.421875 248.382812 366.480469 251.59375 C 364.648438 253.085938 362.769531 254.550781 360.863281 256 C 362.769531 257.445312 364.648438 258.910156 366.480469 260.40625 C 370.421875 263.617188 374.175781 266.941406 377.761719 270.363281 C 384.621094 267.832031 391.402344 264.71875 397.984375 260.917969 C 400.675781 259.363281 403.28125 257.71875 405.8125 256 Z M 405.8125 256 " fill="currentcolor" />
<path d="M 412.980469 225.101562 C 418.574219 228.328125 424.003906 231.9375 429.261719 235.902344 C 439.03125 225.550781 447.066406 214.214844 453.617188 203.050781 C 442.359375 196.652344 429.734375 190.855469 416.097656 186.773438 C 413.527344 192.835938 410.628906 198.675781 407.398438 204.269531 C 404.734375 208.886719 401.804688 213.390625 398.632812 217.78125 C 403.5625 220 408.351562 222.425781 412.980469 225.101562 Z M 412.980469 225.101562 " fill="currentcolor" />
<path d="M 508.175781 245.992188 C 507.160156 244.859375 496.335938 232.941406 478.679688 219.59375 C 473.03125 229.074219 466.890625 237.90625 460.308594 245.980469 C 457.46875 249.460938 454.539062 252.796875 451.539062 256 C 454.542969 259.203125 457.46875 262.539062 460.308594 266.019531 C 466.890625 274.09375 473.027344 282.925781 478.675781 292.40625 C 496.335938 279.058594 507.160156 267.136719 508.175781 266.007812 C 513.273438 260.308594 513.273438 251.691406 508.175781 245.992188 Z M 508.175781 245.992188 " fill="currentcolor" />
<path d="M 44.953125 335.808594 C 36.335938 356.199219 32.921875 371.9375 32.605469 373.421875 C 31.820312 377.160156 32.507812 380.898438 34.296875 384 C 36.089844 387.097656 38.980469 389.558594 42.613281 390.753906 C 44.054688 391.226562 59.390625 396.136719 81.359375 398.867188 C 81.511719 387.832031 82.410156 377.109375 84.074219 366.828125 C 84.796875 362.394531 85.660156 358.046875 86.660156 353.769531 C 82.457031 352.496094 78.253906 351.070312 74.054688 349.472656 C 64.316406 345.777344 54.585938 341.195312 44.953125 335.808594 Z M 44.953125 335.808594 " fill="currentcolor" />
<path d="M 44.953125 176.191406 C 54.585938 170.804688 64.316406 166.226562 74.054688 162.527344 C 78.253906 160.929688 82.457031 159.503906 86.660156 158.230469 C 85.660156 153.957031 84.792969 149.601562 84.074219 145.167969 C 82.410156 134.886719 81.511719 124.167969 81.359375 113.132812 C 59.390625 115.859375 44.054688 120.773438 42.613281 121.246094 C 38.980469 122.433594 36.085938 124.898438 34.296875 128 C 32.507812 131.097656 31.820312 134.835938 32.605469 138.574219 C 32.917969 140.0625 36.335938 155.800781 44.953125 176.191406 Z M 44.953125 176.191406 " fill="currentcolor" />
<path d="M 99.019531 286.898438 C 93.425781 283.671875 87.996094 280.0625 82.738281 276.097656 C 72.96875 286.449219 64.933594 297.785156 58.386719 308.949219 C 69.640625 315.347656 82.265625 321.144531 95.90625 325.226562 C 98.472656 319.164062 101.375 313.320312 104.601562 307.726562 C 107.269531 303.109375 110.195312 298.605469 113.367188 294.214844 C 108.4375 292.003906 103.648438 289.570312 99.019531 286.898438 Z M 99.019531 286.898438 " fill="currentcolor" />
<path d="M 150.75 376.5 C 150.75 371.167969 151.03125 365.804688 151.585938 360.417969 C 146.195312 360.96875 140.832031 361.25 135.5 361.25 C 129.042969 361.25 122.535156 360.84375 116 360.035156 C 112.71875 373.886719 111.425781 387.722656 111.335938 400.667969 C 124.28125 400.574219 138.113281 399.292969 151.96875 396.007812 C 151.160156 389.46875 150.75 382.960938 150.75 376.5 Z M 150.75 376.5 " fill="currentcolor" />
<path d="M 294.21875 398.636719 C 292.003906 403.574219 289.566406 408.363281 286.902344 412.980469 C 283.671875 418.574219 280.0625 424.003906 276.097656 429.261719 C 286.449219 439.03125 297.785156 447.066406 308.953125 453.617188 C 315.347656 442.355469 321.148438 429.730469 325.230469 416.089844 C 319.183594 413.523438 313.339844 410.640625 307.730469 407.398438 C 303.113281 404.734375 298.609375 401.804688 294.21875 398.636719 Z M 294.21875 398.636719 " fill="currentcolor" />
<path d="M 225.101562 412.980469 C 222.433594 408.363281 219.996094 403.578125 217.78125 398.636719 C 213.390625 401.804688 208.886719 404.734375 204.269531 407.398438 C 198.660156 410.640625 192.816406 413.523438 186.773438 416.089844 C 190.855469 429.730469 196.65625 442.359375 203.050781 453.613281 C 214.214844 447.0625 225.550781 439.03125 235.902344 429.261719 C 231.9375 424.003906 228.328125 418.574219 225.101562 412.980469 Z M 225.101562 412.980469 " fill="currentcolor" />
<path d="M 315.054688 349.476562 C 312.847656 348.636719 310.640625 347.742188 308.433594 346.816406 C 308.132812 349.191406 307.804688 351.546875 307.425781 353.878906 C 306.609375 358.898438 305.609375 363.8125 304.441406 368.625 C 310.066406 373.304688 316.148438 377.621094 322.730469 381.417969 C 325.425781 382.976562 328.15625 384.410156 330.90625 385.742188 C 331.128906 382.691406 331.25 379.613281 331.25 376.5 C 331.25 368.902344 330.554688 361.476562 329.316406 354.261719 C 324.5625 352.867188 319.808594 351.28125 315.054688 349.476562 Z M 315.054688 349.476562 " fill="currentcolor" />
<path d="M 467.046875 335.808594 C 457.414062 341.195312 447.683594 345.777344 437.945312 349.476562 C 433.746094 351.070312 429.546875 352.496094 425.339844 353.769531 C 426.339844 358.046875 427.207031 362.398438 427.925781 366.832031 C 429.589844 377.113281 430.488281 387.832031 430.640625 398.867188 C 452.609375 396.136719 467.945312 391.226562 469.386719 390.753906 C 476.648438 388.367188 480.960938 380.90625 479.390625 373.421875 C 479.082031 371.933594 475.664062 356.199219 467.046875 335.808594 Z M 467.046875 335.808594 " fill="currentcolor" />
<path d="M 429.265625 276.097656 C 424.007812 280.0625 418.574219 283.671875 412.984375 286.898438 C 408.351562 289.574219 403.5625 292.003906 398.636719 294.21875 C 401.804688 298.609375 404.734375 303.113281 407.402344 307.730469 C 410.628906 313.324219 413.527344 319.164062 416.097656 325.226562 C 429.738281 321.144531 442.363281 315.34375 453.617188 308.953125 C 447.066406 297.785156 439.03125 286.449219 429.265625 276.097656 Z M 429.265625 276.097656 " fill="currentcolor" />
<path d="M 376.5 361.25 C 371.167969 361.25 365.804688 360.96875 360.414062 360.417969 C 360.96875 365.804688 361.25 371.167969 361.25 376.5 C 361.25 382.960938 360.839844 389.46875 360.035156 396.007812 C 373.886719 399.289062 387.722656 400.574219 400.664062 400.667969 C 400.574219 387.722656 399.285156 373.886719 396.003906 360.035156 C 389.464844 360.84375 382.960938 361.25 376.5 361.25 Z M 376.5 361.25 " fill="currentcolor" />
<path d="M 207.5625 368.625 C 206.390625 363.808594 205.386719 358.894531 204.574219 353.878906 C 204.199219 351.546875 203.867188 349.1875 203.566406 346.8125 C 201.359375 347.742188 199.152344 348.636719 196.945312 349.472656 C 192.195312 351.277344 187.4375 352.867188 182.683594 354.261719 C 181.445312 361.472656 180.75 368.898438 180.75 376.5 C 180.75 379.609375 180.871094 382.691406 181.09375 385.742188 C 183.847656 384.40625 186.574219 382.972656 189.269531 381.417969 C 195.851562 377.617188 201.933594 373.304688 207.5625 368.625 Z M 207.5625 368.625 " fill="currentcolor" />
<path d="M 196.945312 162.527344 C 199.152344 163.363281 201.359375 164.257812 203.566406 165.1875 C 203.867188 162.8125 204.195312 160.453125 204.574219 158.121094 C 205.390625 153.101562 206.390625 148.1875 207.558594 143.375 C 201.933594 138.695312 195.851562 134.382812 189.269531 130.582031 C 186.574219 129.027344 183.847656 127.589844 181.09375 126.257812 C 180.871094 129.308594 180.75 132.390625 180.75 135.5 C 180.75 143.101562 181.445312 150.527344 182.683594 157.738281 C 187.4375 159.132812 192.195312 160.722656 196.945312 162.527344 Z M 196.945312 162.527344 " fill="currentcolor" />
<path d="M 217.78125 113.363281 C 219.996094 108.425781 222.433594 103.636719 225.097656 99.019531 C 228.328125 93.425781 231.9375 87.996094 235.902344 82.738281 C 225.546875 72.96875 214.214844 64.933594 203.046875 58.382812 C 196.652344 69.640625 190.851562 82.269531 186.769531 95.910156 C 192.8125 98.476562 198.660156 101.363281 204.269531 104.601562 C 208.886719 107.265625 213.390625 110.195312 217.78125 113.363281 Z M 217.78125 113.363281 " fill="currentcolor" />
<path d="M 162.523438 196.945312 C 160.71875 192.195312 159.128906 187.4375 157.738281 182.683594 C 150.523438 181.445312 143.097656 180.75 135.5 180.75 C 132.390625 180.75 129.308594 180.875 126.261719 181.09375 C 127.59375 183.847656 129.027344 186.574219 130.578125 189.269531 C 134.378906 195.84375 138.6875 201.921875 143.359375 207.542969 C 150.40625 205.828125 157.691406 204.511719 165.183594 203.566406 C 164.257812 201.359375 163.363281 199.152344 162.523438 196.945312 Z M 162.523438 196.945312 " fill="currentcolor" />
<path d="M 82.738281 235.902344 C 87.996094 231.9375 93.425781 228.332031 99.019531 225.101562 C 103.648438 222.429688 108.4375 220 113.363281 217.785156 C 110.195312 213.390625 107.265625 208.886719 104.597656 204.269531 C 101.371094 198.675781 98.472656 192.835938 95.902344 186.773438 C 82.265625 190.855469 69.640625 196.65625 58.382812 203.050781 C 64.933594 214.214844 72.96875 225.550781 82.738281 235.902344 Z M 82.738281 235.902344 " fill="currentcolor" />
<path d="M 135.5 150.75 C 140.832031 150.75 146.195312 151.03125 151.585938 151.582031 C 151.03125 146.195312 150.75 140.832031 150.75 135.5 C 150.75 129.039062 151.160156 122.53125 151.96875 115.992188 C 138.113281 112.710938 124.277344 111.425781 111.335938 111.332031 C 111.425781 124.277344 112.714844 138.113281 116 151.964844 C 122.535156 151.15625 129.042969 150.75 135.5 150.75 Z M 135.5 150.75 " fill="currentcolor" />
<path d="M 145.519531 260.40625 C 147.351562 258.914062 149.230469 257.449219 151.136719 256 C 149.230469 254.554688 147.351562 253.089844 145.519531 251.59375 C 141.582031 248.382812 137.824219 245.058594 134.238281 241.632812 C 127.378906 244.167969 120.601562 247.28125 114.019531 251.082031 C 111.324219 252.636719 108.71875 254.285156 106.1875 256 C 108.71875 257.71875 111.324219 259.363281 114.015625 260.917969 C 120.597656 264.71875 127.375 267.832031 134.242188 270.367188 C 137.824219 266.945312 141.582031 263.617188 145.519531 260.40625 Z M 145.519531 260.40625 " fill="currentcolor" />
<path d="M 51.695312 266.019531 C 54.53125 262.539062 57.460938 259.203125 60.464844 256 C 57.460938 252.796875 54.53125 249.460938 51.695312 245.980469 C 45.113281 237.90625 38.972656 229.074219 33.324219 219.59375 C 15.667969 232.941406 4.839844 244.863281 3.828125 245.992188 C 1.273438 248.84375 0 252.421875 0 256 C 0 259.578125 1.273438 263.15625 3.824219 266.007812 C 4.839844 267.136719 15.664062 279.058594 33.324219 292.402344 C 38.972656 282.925781 45.109375 274.09375 51.695312 266.019531 Z M 51.695312 266.019531 " fill="currentcolor" />
<path d="M 157.738281 329.316406 C 159.132812 324.5625 160.71875 319.808594 162.523438 315.054688 C 163.363281 312.847656 164.257812 310.640625 165.183594 308.433594 C 157.691406 307.488281 150.40625 306.171875 143.359375 304.457031 C 138.6875 310.078125 134.378906 316.152344 130.582031 322.726562 C 129.027344 325.421875 127.59375 328.152344 126.261719 330.90625 C 129.3125 331.128906 132.390625 331.25 135.5 331.25 C 143.101562 331.25 150.523438 330.554688 157.738281 329.316406 Z M 157.738281 329.316406 " fill="currentcolor" />
<path d="M 343.863281 232.445312 C 343.410156 232.402344 342.960938 232.359375 342.507812 232.316406 C 329.296875 231.082031 316.113281 229.933594 302.964844 228.878906 C 308.628906 216.960938 314.222656 204.964844 319.761719 192.902344 C 319.949219 192.492188 320.136719 192.078125 320.324219 191.667969 C 319.910156 191.859375 319.496094 192.046875 319.085938 192.234375 C 307.023438 197.769531 295.03125 203.367188 283.121094 209.023438 C 282.0625 195.875 280.914062 182.6875 279.675781 169.472656 C 279.636719 169.023438 279.589844 168.574219 279.550781 168.121094 C 279.285156 168.492188 279.023438 168.863281 278.757812 169.234375 C 271.078125 180.0625 263.484375 190.914062 255.992188 201.777344 C 248.507812 190.925781 240.921875 180.089844 233.25 169.269531 C 232.984375 168.898438 232.722656 168.527344 232.457031 168.15625 C 232.414062 168.601562 232.371094 169.050781 232.332031 169.5 C 231.09375 182.710938 229.945312 195.894531 228.890625 209.042969 C 216.980469 203.386719 204.992188 197.792969 192.941406 192.261719 C 192.527344 192.070312 192.113281 191.882812 191.699219 191.695312 C 191.886719 192.101562 192.074219 192.511719 192.261719 192.921875 C 197.796875 204.980469 203.390625 216.972656 209.050781 228.890625 C 195.910156 229.945312 182.734375 231.09375 169.527344 232.328125 C 169.074219 232.371094 168.621094 232.417969 168.171875 232.457031 C 168.535156 232.71875 168.902344 232.980469 169.269531 233.238281 C 180.09375 240.917969 190.9375 248.503906 201.796875 255.992188 C 190.941406 263.476562 180.105469 271.0625 169.285156 278.734375 C 168.914062 279 168.546875 279.261719 168.175781 279.523438 C 168.621094 279.566406 169.070312 279.609375 169.519531 279.652344 C 182.730469 280.890625 195.914062 282.039062 209.0625 283.09375 C 203.40625 295.003906 197.8125 306.992188 192.28125 319.046875 C 192.09375 319.457031 191.902344 319.871094 191.714844 320.285156 C 192.121094 320.097656 192.53125 319.910156 192.941406 319.722656 C 205.003906 314.1875 216.992188 308.59375 228.90625 302.933594 C 229.964844 316.074219 231.113281 329.25 232.347656 342.457031 C 232.390625 342.910156 232.433594 343.359375 232.476562 343.8125 C 232.738281 343.445312 233 343.082031 233.257812 342.714844 C 240.929688 331.898438 248.515625 321.0625 255.996094 310.210938 C 263.488281 321.070312 271.074219 331.914062 278.753906 342.738281 C 279.015625 343.105469 279.277344 343.476562 279.539062 343.84375 C 279.582031 343.390625 279.625 342.9375 279.667969 342.484375 C 280.902344 329.273438 282.054688 316.09375 283.109375 302.945312 C 295.027344 308.605469 307.023438 314.203125 319.085938 319.738281 C 319.496094 319.929688 319.90625 320.117188 320.316406 320.304688 C 320.128906 319.890625 319.941406 319.476562 319.75 319.0625 C 314.214844 307.003906 308.621094 295.015625 302.960938 283.101562 C 316.113281 282.042969 329.296875 280.894531 342.511719 279.65625 C 342.960938 279.613281 343.414062 279.570312 343.863281 279.527344 C 343.492188 279.265625 343.121094 279.003906 342.753906 278.738281 C 331.929688 271.0625 321.089844 263.476562 310.230469 255.988281 C 321.09375 248.5 331.9375 240.910156 342.761719 233.230469 C 343.128906 232.972656 343.496094 232.710938 343.863281 232.445312 Z M 343.863281 232.445312 " fill="currentcolor" />
</g>
</svg>