<svg xmlns="http://www.w3.org/2000/svg" height="512pt" version="1.1" viewBox="0 0 512.00363 512" width="512pt">
<g id="surface1">
<path d="M 508.179688 245.996094 C 506.75 244.402344 485.769531 221.316406 453.617188 203.050781 C 472.332031 171.160156 478.953125 140.675781 479.394531 138.582031 C 480.960938 131.097656 476.652344 123.632812 469.386719 121.25 C 468.15625 120.847656 438.808594 111.359375 402.0625 111.359375 C 401.589844 111.359375 401.132812 111.375 400.664062 111.375 C 400.933594 74.382812 391.421875 44.652344 390.753906 42.617188 C 388.371094 35.351562 380.90625 31.042969 373.421875 32.609375 C 371.328125 33.046875 340.847656 39.671875 308.953125 58.386719 C 290.6875 26.234375 267.601562 5.253906 266.007812 3.828125 C 260.3125 -1.273438 251.691406 -1.273438 245.996094 3.828125 C 244.398438 5.253906 221.3125 26.234375 203.050781 58.386719 C 171.15625 39.671875 140.675781 33.046875 138.578125 32.609375 C 131.097656 31.042969 123.632812 35.351562 121.25 42.613281 C 120.582031 44.652344 111.070312 74.382812 111.335938 111.375 C 110.871094 111.375 110.410156 111.359375 109.941406 111.359375 C 73.199219 111.359375 43.847656 120.84375 42.613281 121.25 C 35.347656 123.632812 31.039062 131.097656 32.609375 138.582031 C 33.046875 140.675781 39.671875 171.160156 58.382812 203.050781 C 26.234375 221.316406 5.253906 244.402344 3.824219 245.996094 C -1.273438 251.691406 -1.273438 260.3125 3.824219 266.007812 C 5.253906 267.605469 26.230469 290.691406 58.382812 308.953125 C 39.671875 340.847656 33.046875 371.328125 32.609375 373.425781 C 31.039062 380.90625 35.347656 388.371094 42.613281 390.753906 C 43.84375 391.160156 73.195312 400.648438 109.945312 400.648438 C 110.410156 400.648438 110.871094 400.632812 111.335938 400.628906 C 111.070312 437.625 120.582031 467.355469 121.25 469.390625 C 123.304688 475.652344 129.128906 479.71875 135.492188 479.71875 C 136.511719 479.71875 137.546875 479.613281 138.578125 479.398438 C 140.675781 478.957031 171.15625 472.332031 203.050781 453.621094 C 221.316406 485.773438 244.402344 506.75 245.996094 508.179688 C 248.84375 510.730469 252.421875 512.003906 256 512.003906 C 259.582031 512.003906 263.160156 510.730469 266.007812 508.179688 C 267.605469 506.75 290.691406 485.773438 308.953125 453.621094 C 340.847656 472.335938 371.328125 478.957031 373.421875 479.398438 C 374.457031 479.613281 375.492188 479.71875 376.511719 479.71875 C 382.871094 479.71875 388.703125 475.652344 390.753906 469.390625 C 391.421875 467.355469 400.933594 437.625 400.667969 400.628906 C 401.132812 400.632812 401.589844 400.648438 402.058594 400.648438 C 438.804688 400.648438 468.15625 391.160156 469.386719 390.753906 C 476.652344 388.371094 480.960938 380.90625 479.394531 373.425781 C 478.953125 371.328125 472.328125 340.847656 453.617188 308.953125 C 485.769531 290.691406 506.75 267.605469 508.179688 266.011719 C 513.277344 260.3125 513.277344 251.691406 508.179688 245.996094 Z M 508.179688 245.996094 " style=" stroke:none;fill-rule:nonzero;fill:rgb(0%,32.156863%,52.156863%);fill-opacity:1;" />
<path d="M 508.179688 245.996094 C 506.75 244.402344 485.769531 221.316406 453.617188 203.050781 C 472.332031 171.160156 478.953125 140.675781 479.394531 138.582031 C 480.960938 131.097656 476.652344 123.632812 469.386719 121.25 C 468.15625 120.847656 438.808594 111.359375 402.0625 111.359375 C 401.589844 111.359375 401.132812 111.375 400.664062 111.375 C 400.933594 74.382812 391.421875 44.652344 390.753906 42.617188 C 388.371094 35.351562 380.90625 31.042969 373.421875 32.609375 C 371.328125 33.046875 340.847656 39.671875 308.953125 58.386719 C 290.6875 26.234375 267.601562 5.253906 266.007812 3.828125 C 263.160156 1.277344 259.582031 0.00390625 256.003906 0.00390625 L 256.003906 512.003906 C 259.582031 512.003906 263.160156 510.726562 266.007812 508.179688 C 267.605469 506.75 290.691406 485.773438 308.953125 453.621094 C 340.847656 472.332031 371.328125 478.957031 373.425781 479.394531 C 374.457031 479.613281 375.492188 479.71875 376.511719 479.71875 C 382.875 479.71875 388.703125 475.652344 390.757812 469.390625 C 391.421875 467.355469 400.933594 437.621094 400.667969 400.628906 C 401.132812 400.628906 401.59375 400.644531 402.0625 400.644531 C 438.804688 400.644531 468.15625 391.160156 469.390625 390.753906 C 476.652344 388.371094 480.964844 380.90625 479.394531 373.421875 C 478.953125 371.328125 472.332031 340.84375 453.617188 308.953125 C 485.769531 290.6875 506.75 267.601562 508.179688 266.007812 C 513.277344 260.3125 513.277344 251.691406 508.179688 245.996094 Z M 508.179688 245.996094 " style=" stroke:none;fill-rule:nonzero;fill:rgb(0%,6.27451%,20.784314%);fill-opacity:1;" />
<path d="M 256.003906 106.191406 C 270.316406 85.089844 289.882812 69.578125 308.953125 58.386719 C 290.691406 26.234375 267.605469 5.257812 266.007812 3.828125 C 260.3125 -1.273438 251.695312 -1.273438 245.996094 3.828125 C 244.402344 5.257812 221.316406 26.234375 203.050781 58.386719 C 222.121094 69.574219 241.691406 85.089844 256.003906 106.191406 Z M 256.003906 106.191406 " style=" stroke:none;fill-rule:nonzero;fill:rgb(63.529412%,84.705882%,95.686275%);fill-opacity:1;" />
<path d="M 189.269531 130.585938 C 207.414062 141.0625 221.808594 155.421875 233.125 170.628906 C 235.324219 151.800781 240.605469 132.167969 251.082031 114.023438 C 252.640625 111.328125 254.285156 108.722656 256.003906 106.191406 C 241.6875 85.089844 222.121094 69.578125 203.050781 58.386719 C 192.132812 77.613281 182.941406 100.832031 181.097656 126.261719 C 183.886719 127.613281 186.613281 129.050781 189.269531 130.585938 Z M 189.269531 130.585938 " style=" stroke:none;fill-rule:nonzero;fill:rgb(35.686275%,78.823529%,50.196078%);fill-opacity:1;" />
<path d="M 256.003906 106.191406 C 257.71875 108.722656 259.367188 111.328125 260.921875 114.023438 C 271.398438 132.167969 276.679688 151.800781 278.878906 170.628906 C 290.199219 155.421875 304.589844 141.0625 322.734375 130.585938 C 325.390625 129.050781 328.117188 127.613281 330.90625 126.261719 C 329.0625 100.832031 319.875 77.613281 308.953125 58.386719 C 289.882812 69.578125 270.316406 85.089844 256.003906 106.191406 Z M 256.003906 106.191406 " style=" stroke:none;fill-rule:nonzero;fill:rgb(0%,60%,32.941176%);fill-opacity:1;" />
<path d="M 278.878906 170.628906 C 276.679688 151.800781 271.398438 132.167969 260.921875 114.023438 C 259.367188 111.328125 257.71875 108.722656 256.003906 106.191406 C 254.285156 108.722656 252.640625 111.328125 251.082031 114.023438 C 240.605469 132.167969 235.324219 151.800781 233.125 170.628906 C 242.90625 183.769531 250.390625 197.53125 256.003906 209.972656 C 261.613281 197.535156 269.097656 183.769531 278.878906 170.628906 Z M 278.878906 170.628906 " style=" stroke:none;fill-rule:nonzero;fill:rgb(100%,82.352941%,48.235294%);fill-opacity:1;" />
<path d="M 256.003906 405.816406 C 241.6875 426.917969 222.121094 442.429688 203.054688 453.621094 C 221.316406 485.773438 244.402344 506.75 245.996094 508.179688 C 248.84375 510.730469 252.421875 512.003906 256.003906 512.003906 C 259.582031 512.003906 263.160156 510.730469 266.007812 508.179688 C 267.605469 506.75 290.691406 485.773438 308.953125 453.621094 C 289.882812 442.429688 270.316406 426.917969 256.003906 405.816406 Z M 256.003906 405.816406 " style=" stroke:none;fill-rule:nonzero;fill:rgb(63.529412%,84.705882%,95.686275%);fill-opacity:1;" />
<path d="M 322.734375 381.421875 C 304.589844 370.945312 290.199219 356.582031 278.878906 341.375 C 276.679688 360.207031 271.398438 379.839844 260.921875 397.984375 C 259.367188 400.679688 257.722656 403.285156 256.003906 405.816406 C 270.316406 426.917969 289.882812 442.429688 308.953125 453.621094 C 319.875 434.394531 329.0625 411.175781 330.910156 385.746094 C 328.117188 384.394531 325.390625 382.953125 322.734375 381.421875 Z M 322.734375 381.421875 " style=" stroke:none;fill-rule:nonzero;fill:rgb(0%,60%,32.941176%);fill-opacity:1;" />
<path d="M 256.003906 405.816406 C 254.285156 403.285156 252.640625 400.679688 251.082031 397.988281 C 240.605469 379.839844 235.324219 360.207031 233.125 341.378906 C 221.808594 356.582031 207.414062 370.945312 189.269531 381.421875 C 186.613281 382.957031 183.886719 384.398438 181.097656 385.746094 C 182.941406 411.179688 192.132812 434.394531 203.054688 453.621094 C 222.121094 442.429688 241.691406 426.917969 256.003906 405.816406 Z M 256.003906 405.816406 " style=" stroke:none;fill-rule:nonzero;fill:rgb(35.686275%,78.823529%,50.196078%);fill-opacity:1;" />
<path d="M 233.125 341.375 C 235.324219 360.207031 240.605469 379.839844 251.082031 397.984375 C 252.640625 400.679688 254.285156 403.285156 256.003906 405.816406 C 257.71875 403.285156 259.367188 400.679688 260.921875 397.984375 C 271.398438 379.839844 276.679688 360.207031 278.878906 341.375 C 269.097656 328.238281 261.613281 314.472656 256.003906 302.03125 C 250.390625 314.472656 242.90625 328.238281 233.125 341.375 Z M 233.125 341.375 " style=" stroke:none;fill-rule:nonzero;fill:rgb(100%,82.352941%,48.235294%);fill-opacity:1;" />
<path d="M 111.335938 111.375 C 110.871094 111.375 110.410156 111.359375 109.941406 111.359375 C 73.203125 111.359375 43.847656 120.84375 42.617188 121.25 C 35.351562 123.632812 31.039062 131.097656 32.609375 138.582031 C 33.046875 140.675781 39.671875 171.160156 58.382812 203.050781 C 77.609375 192.132812 100.828125 182.941406 126.257812 181.097656 C 115.148438 158.164062 111.496094 133.476562 111.335938 111.375 Z M 111.335938 111.375 " style=" stroke:none;fill-rule:nonzero;fill:rgb(63.529412%,84.705882%,95.686275%);fill-opacity:1;" />
<path d="M 135.5 180.753906 C 156.453125 180.753906 176.097656 185.996094 193.503906 193.503906 C 185.996094 176.101562 180.753906 156.453125 180.753906 135.503906 C 180.753906 132.390625 180.875 129.3125 181.097656 126.261719 C 161.050781 116.542969 137.636719 111.546875 111.335938 111.375 C 111.496094 133.476562 115.148438 158.164062 126.261719 181.097656 C 129.3125 180.875 132.390625 180.753906 135.5 180.753906 Z M 135.5 180.753906 " style=" stroke:none;fill-rule:nonzero;fill:rgb(35.686275%,78.823529%,50.196078%);fill-opacity:1;" />
<path d="M 106.191406 256.003906 C 108.722656 254.285156 111.328125 252.640625 114.019531 251.085938 C 130.453125 241.597656 149.433594 235.59375 170.640625 233.136719 C 155.429688 221.816406 141.0625 207.421875 130.582031 189.273438 C 129.027344 186.578125 127.59375 183.851562 126.261719 181.097656 C 100.828125 182.941406 77.609375 192.132812 58.386719 203.050781 C 69.574219 222.121094 85.089844 241.691406 106.191406 256.003906 Z M 106.191406 256.003906 " style=" stroke:none;fill-rule:nonzero;fill:rgb(35.686275%,78.823529%,50.196078%);fill-opacity:1;" />
<path d="M 216.167969 233.023438 C 208.191406 221.9375 200 208.5625 193.503906 193.503906 C 176.097656 185.996094 156.453125 180.753906 135.5 180.753906 C 132.390625 180.753906 129.3125 180.875 126.261719 181.097656 C 127.59375 183.851562 129.027344 186.578125 130.582031 189.273438 C 141.0625 207.421875 155.429688 221.816406 170.640625 233.136719 C 177.949219 232.289062 185.523438 231.859375 193.351562 231.859375 C 201.378906 231.859375 209.058594 232.3125 216.167969 233.023438 Z M 216.167969 233.023438 " style=" stroke:none;fill-rule:nonzero;fill:rgb(100%,82.352941%,48.235294%);fill-opacity:1;" />
<path d="M 233.125 170.628906 C 221.808594 155.421875 207.414062 141.0625 189.269531 130.585938 C 186.613281 129.050781 183.886719 127.613281 181.097656 126.261719 C 180.875 129.3125 180.753906 132.390625 180.753906 135.503906 C 180.753906 156.453125 185.996094 176.101562 193.503906 193.503906 C 208.542969 199.996094 221.90625 208.171875 232.988281 216.140625 C 231.628906 202.5625 231.226562 186.898438 233.125 170.628906 Z M 233.125 170.628906 " style=" stroke:none;fill-rule:nonzero;fill:rgb(100%,82.352941%,48.235294%);fill-opacity:1;" />
<path d="M 235.753906 235.78125 C 234.695312 229.972656 233.710938 223.347656 232.988281 216.140625 C 221.90625 208.171875 208.542969 199.996094 193.503906 193.503906 C 200 208.5625 208.191406 221.9375 216.167969 233.023438 C 223.355469 233.746094 229.953125 234.730469 235.753906 235.78125 Z M 235.753906 235.78125 " style=" stroke:none;fill-rule:nonzero;fill:rgb(100%,58.039216%,40.784314%);fill-opacity:1;" />
<path d="M 232.988281 216.140625 C 238.855469 220.359375 244.089844 224.519531 248.589844 228.335938 C 250.578125 222.78125 253.03125 216.5625 256.003906 209.972656 C 250.390625 197.535156 242.90625 183.769531 233.125 170.628906 C 231.226562 186.898438 231.628906 202.5625 232.988281 216.140625 Z M 232.988281 216.140625 " style=" stroke:none;fill-rule:nonzero;fill:rgb(100%,58.039216%,40.784314%);fill-opacity:1;" />
<path d="M 400.667969 400.628906 C 401.132812 400.632812 401.59375 400.648438 402.0625 400.648438 C 438.804688 400.648438 468.15625 391.160156 469.390625 390.753906 C 476.652344 388.371094 480.964844 380.90625 479.394531 373.421875 C 478.953125 371.328125 472.332031 340.847656 453.617188 308.953125 C 434.394531 319.871094 411.171875 329.0625 385.742188 330.90625 C 396.855469 353.839844 400.507812 378.527344 400.667969 400.628906 Z M 400.667969 400.628906 " style=" stroke:none;fill-rule:nonzero;fill:rgb(15.294118%,69.803922%,92.156863%);fill-opacity:1;" />
<path d="M 376.5 331.253906 C 355.550781 331.253906 335.90625 326.011719 318.5 318.5 C 326.011719 335.90625 331.253906 355.550781 331.253906 376.503906 C 331.253906 379.613281 331.128906 382.695312 330.90625 385.746094 C 350.953125 395.464844 374.371094 400.457031 400.667969 400.628906 C 400.507812 378.527344 396.855469 353.839844 385.742188 330.90625 C 382.691406 331.128906 379.613281 331.253906 376.5 331.253906 Z M 376.5 331.253906 " style=" stroke:none;fill-rule:nonzero;fill:rgb(0%,60%,32.941176%);fill-opacity:1;" />
<path d="M 405.8125 256.003906 C 403.285156 257.722656 400.679688 259.367188 397.984375 260.921875 C 381.550781 270.410156 362.570312 276.414062 341.363281 278.867188 C 356.574219 290.191406 370.941406 304.585938 381.421875 322.734375 C 382.976562 325.429688 384.410156 328.15625 385.742188 330.90625 C 411.171875 329.0625 434.394531 319.875 453.617188 308.953125 C 442.429688 289.882812 426.914062 270.316406 405.8125 256.003906 Z M 405.8125 256.003906 " style=" stroke:none;fill-rule:nonzero;fill:rgb(0%,60%,32.941176%);fill-opacity:1;" />
<path d="M 295.839844 278.980469 C 303.816406 290.070312 312.003906 303.445312 318.5 318.5 C 335.90625 326.011719 355.550781 331.253906 376.5 331.253906 C 379.613281 331.253906 382.691406 331.128906 385.742188 330.910156 C 384.410156 328.15625 382.976562 325.429688 381.421875 322.738281 C 370.941406 304.585938 356.574219 290.191406 341.363281 278.871094 C 334.054688 279.71875 326.484375 280.148438 318.65625 280.148438 C 310.625 280.148438 302.949219 279.695312 295.839844 278.980469 Z M 295.839844 278.980469 " style=" stroke:none;fill-rule:nonzero;fill:rgb(100%,62.352941%,0%);fill-opacity:1;" />
<path d="M 278.878906 341.375 C 290.195312 356.582031 304.589844 370.945312 322.734375 381.421875 C 325.390625 382.953125 328.117188 384.394531 330.90625 385.746094 C 331.128906 382.695312 331.253906 379.613281 331.253906 376.503906 C 331.253906 355.550781 326.011719 335.90625 318.5 318.5 C 303.460938 312.011719 290.097656 303.832031 279.015625 295.863281 C 280.375 309.445312 280.777344 325.105469 278.878906 341.375 Z M 278.878906 341.375 " style=" stroke:none;fill-rule:nonzero;fill:rgb(100%,62.352941%,0%);fill-opacity:1;" />
<path d="M 276.25 276.226562 C 277.308594 282.035156 278.296875 288.660156 279.015625 295.863281 C 290.097656 303.832031 303.460938 312.011719 318.5 318.5 C 312.003906 303.445312 303.816406 290.070312 295.839844 278.980469 C 288.652344 278.261719 282.050781 277.277344 276.25 276.226562 Z M 276.25 276.226562 " style=" stroke:none;fill-rule:nonzero;fill:rgb(100%,39.215686%,10.196078%);fill-opacity:1;" />
<path d="M 279.015625 295.863281 C 273.148438 291.644531 267.914062 287.484375 263.417969 283.671875 C 261.429688 289.222656 258.976562 295.441406 256.003906 302.03125 C 261.613281 314.472656 269.097656 328.238281 278.878906 341.375 C 280.777344 325.105469 280.375 309.445312 279.015625 295.863281 Z M 279.015625 295.863281 " style=" stroke:none;fill-rule:nonzero;fill:rgb(100%,39.215686%,10.196078%);fill-opacity:1;" />
<path d="M 58.386719 308.953125 C 39.671875 340.847656 33.046875 371.328125 32.609375 373.425781 C 31.042969 380.90625 35.351562 388.371094 42.617188 390.753906 C 43.847656 391.160156 73.195312 400.648438 109.945312 400.648438 C 110.414062 400.648438 110.871094 400.632812 111.335938 400.628906 C 111.496094 378.527344 115.148438 353.84375 126.265625 330.910156 C 100.832031 329.066406 77.613281 319.875 58.386719 308.953125 Z M 58.386719 308.953125 " style=" stroke:none;fill-rule:nonzero;fill:rgb(63.529412%,84.705882%,95.686275%);fill-opacity:1;" />
<path d="M 130.582031 322.738281 C 141.0625 304.585938 155.429688 290.191406 170.640625 278.871094 C 149.433594 276.410156 130.453125 270.410156 114.019531 260.921875 C 111.328125 259.367188 108.722656 257.722656 106.191406 256.003906 C 85.089844 270.316406 69.574219 289.886719 58.386719 308.953125 C 77.613281 319.875 100.832031 329.066406 126.261719 330.910156 C 127.597656 328.15625 129.027344 325.429688 130.582031 322.738281 Z M 130.582031 322.738281 " style=" stroke:none;fill-rule:nonzero;fill:rgb(35.686275%,78.823529%,50.196078%);fill-opacity:1;" />
<path d="M 180.753906 376.503906 C 180.753906 355.550781 185.996094 335.90625 193.503906 318.5 C 176.097656 326.011719 156.453125 331.253906 135.5 331.253906 C 132.390625 331.253906 129.3125 331.128906 126.261719 330.90625 C 115.148438 353.839844 111.496094 378.527344 111.335938 400.628906 C 137.632812 400.457031 161.050781 395.464844 181.097656 385.746094 C 180.875 382.695312 180.753906 379.613281 180.753906 376.503906 Z M 180.753906 376.503906 " style=" stroke:none;fill-rule:nonzero;fill:rgb(35.686275%,78.823529%,50.196078%);fill-opacity:1;" />
<path d="M 193.347656 280.148438 C 185.519531 280.148438 177.949219 279.714844 170.640625 278.871094 C 155.429688 290.191406 141.0625 304.585938 130.582031 322.738281 C 129.027344 325.429688 127.597656 328.15625 126.261719 330.910156 C 129.3125 331.128906 132.390625 331.253906 135.5 331.253906 C 156.453125 331.253906 176.097656 326.011719 193.503906 318.5 C 200 303.445312 208.191406 290.070312 216.167969 278.980469 C 209.058594 279.695312 201.378906 280.148438 193.347656 280.148438 Z M 193.347656 280.148438 " style=" stroke:none;fill-rule:nonzero;fill:rgb(100%,82.352941%,48.235294%);fill-opacity:1;" />
<path d="M 232.988281 295.863281 C 221.910156 303.832031 208.546875 312.011719 193.503906 318.5 C 185.996094 335.90625 180.753906 355.554688 180.753906 376.503906 C 180.753906 379.613281 180.875 382.695312 181.097656 385.746094 C 183.886719 384.394531 186.617188 382.957031 189.273438 381.421875 C 207.414062 370.945312 221.808594 356.582031 233.125 341.378906 C 231.226562 325.105469 231.628906 309.445312 232.988281 295.863281 Z M 232.988281 295.863281 " style=" stroke:none;fill-rule:nonzero;fill:rgb(100%,82.352941%,48.235294%);fill-opacity:1;" />
<path d="M 248.589844 283.671875 C 244.089844 287.484375 238.859375 291.644531 232.988281 295.863281 C 231.628906 309.445312 231.226562 325.105469 233.125 341.375 C 242.90625 328.238281 250.390625 314.472656 256.003906 302.03125 C 253.03125 295.441406 250.578125 289.222656 248.589844 283.671875 Z M 248.589844 283.671875 " style=" stroke:none;fill-rule:nonzero;fill:rgb(100%,58.039216%,40.784314%);fill-opacity:1;" />
<path d="M 235.753906 276.226562 C 229.957031 277.277344 223.355469 278.261719 216.167969 278.980469 C 208.191406 290.070312 200 303.445312 193.503906 318.5 C 208.546875 312.011719 221.90625 303.832031 232.988281 295.863281 C 233.710938 288.660156 234.699219 282.035156 235.753906 276.226562 Z M 235.753906 276.226562 " style=" stroke:none;fill-rule:nonzero;fill:rgb(100%,58.039216%,40.784314%);fill-opacity:1;" />
<path d="M 170.640625 233.136719 C 149.433594 235.59375 130.453125 241.597656 114.019531 251.085938 C 111.328125 252.640625 108.722656 254.285156 106.191406 256.003906 C 108.722656 257.71875 111.328125 259.367188 114.019531 260.921875 C 130.453125 270.410156 149.433594 276.410156 170.640625 278.867188 C 183.777344 269.09375 197.539062 261.613281 209.972656 256.003906 C 197.535156 250.394531 183.777344 242.914062 170.640625 233.136719 Z M 170.640625 233.136719 " style=" stroke:none;fill-rule:nonzero;fill:rgb(100%,82.352941%,48.235294%);fill-opacity:1;" />
<path d="M 228.335938 248.589844 C 224.527344 244.101562 220.378906 238.878906 216.167969 233.023438 C 209.058594 232.3125 201.378906 231.859375 193.351562 231.859375 C 185.523438 231.859375 177.949219 232.289062 170.640625 233.136719 C 183.777344 242.914062 197.535156 250.394531 209.972656 256.003906 C 216.5625 253.03125 222.785156 250.578125 228.335938 248.589844 Z M 228.335938 248.589844 " style=" stroke:none;fill-rule:nonzero;fill:rgb(100%,58.039216%,40.784314%);fill-opacity:1;" />
<path d="M 216.167969 278.980469 C 220.378906 273.128906 224.527344 267.90625 228.335938 263.417969 C 222.78125 261.429688 216.5625 258.976562 209.972656 256.003906 C 197.539062 261.613281 183.777344 269.09375 170.640625 278.871094 C 177.949219 279.71875 185.519531 280.148438 193.347656 280.148438 C 201.378906 280.148438 209.058594 279.695312 216.167969 278.980469 Z M 216.167969 278.980469 " style=" stroke:none;fill-rule:nonzero;fill:rgb(100%,58.039216%,40.784314%);fill-opacity:1;" />
<path d="M 453.617188 203.050781 C 472.332031 171.160156 478.953125 140.675781 479.394531 138.582031 C 480.960938 131.097656 476.652344 123.632812 469.386719 121.25 C 468.15625 120.847656 438.808594 111.359375 402.0625 111.359375 C 401.589844 111.359375 401.132812 111.375 400.664062 111.375 C 400.507812 133.476562 396.851562 158.164062 385.742188 181.097656 C 411.175781 182.941406 434.394531 192.132812 453.617188 203.050781 Z M 453.617188 203.050781 " style=" stroke:none;fill-rule:nonzero;fill:rgb(15.294118%,69.803922%,92.156863%);fill-opacity:1;" />
<path d="M 381.421875 189.273438 C 370.941406 207.421875 356.574219 221.816406 341.363281 233.136719 C 362.570312 235.59375 381.550781 241.597656 397.984375 251.085938 C 400.675781 252.640625 403.28125 254.289062 405.8125 256.003906 C 426.914062 241.691406 442.429688 222.121094 453.617188 203.050781 C 434.394531 192.132812 411.175781 182.941406 385.742188 181.097656 C 384.410156 183.851562 382.976562 186.578125 381.421875 189.273438 Z M 381.421875 189.273438 " style=" stroke:none;fill-rule:nonzero;fill:rgb(0%,60%,32.941176%);fill-opacity:1;" />
<path d="M 331.253906 135.503906 C 331.253906 156.453125 326.011719 176.097656 318.5 193.503906 C 335.90625 185.996094 355.550781 180.753906 376.5 180.753906 C 379.613281 180.753906 382.691406 180.875 385.742188 181.097656 C 396.855469 158.164062 400.507812 133.476562 400.667969 111.375 C 374.371094 111.546875 350.953125 116.542969 330.90625 126.261719 C 331.128906 129.3125 331.253906 132.390625 331.253906 135.503906 Z M 331.253906 135.503906 " style=" stroke:none;fill-rule:nonzero;fill:rgb(0%,60%,32.941176%);fill-opacity:1;" />
<path d="M 318.65625 231.859375 C 326.484375 231.859375 334.054688 232.289062 341.363281 233.136719 C 356.574219 221.816406 370.941406 207.421875 381.421875 189.273438 C 382.976562 186.578125 384.410156 183.851562 385.742188 181.097656 C 382.691406 180.875 379.613281 180.753906 376.5 180.753906 C 355.550781 180.753906 335.90625 185.996094 318.5 193.503906 C 312.003906 208.5625 303.816406 221.9375 295.839844 233.023438 C 302.949219 232.3125 310.625 231.859375 318.65625 231.859375 Z M 318.65625 231.859375 " style=" stroke:none;fill-rule:nonzero;fill:rgb(100%,62.352941%,0%);fill-opacity:1;" />
<path d="M 279.019531 216.140625 C 290.097656 208.171875 303.460938 199.992188 318.5 193.503906 C 326.011719 176.097656 331.253906 156.453125 331.253906 135.503906 C 331.253906 132.390625 331.128906 129.3125 330.90625 126.261719 C 328.117188 127.613281 325.390625 129.050781 322.734375 130.585938 C 304.585938 141.0625 290.199219 155.421875 278.878906 170.628906 C 280.78125 186.898438 280.378906 202.5625 279.019531 216.140625 Z M 279.019531 216.140625 " style=" stroke:none;fill-rule:nonzero;fill:rgb(100%,62.352941%,0%);fill-opacity:1;" />
<path d="M 263.417969 228.335938 C 267.914062 224.519531 273.148438 220.359375 279.015625 216.140625 C 280.375 202.5625 280.78125 186.898438 278.878906 170.628906 C 269.097656 183.769531 261.613281 197.53125 256 209.972656 C 258.976562 216.5625 261.429688 222.785156 263.417969 228.335938 Z M 263.417969 228.335938 " style=" stroke:none;fill-rule:nonzero;fill:rgb(100%,39.215686%,10.196078%);fill-opacity:1;" />
<path d="M 276.253906 235.78125 C 282.050781 234.730469 288.652344 233.746094 295.839844 233.023438 C 303.816406 221.9375 312.003906 208.5625 318.5 193.503906 C 303.460938 199.992188 290.097656 208.171875 279.019531 216.140625 C 278.296875 223.347656 277.308594 229.972656 276.253906 235.78125 Z M 276.253906 235.78125 " style=" stroke:none;fill-rule:nonzero;fill:rgb(100%,39.215686%,10.196078%);fill-opacity:1;" />
<path d="M 341.363281 233.136719 C 328.226562 242.914062 314.46875 250.394531 302.03125 256.003906 C 314.46875 261.613281 328.226562 269.09375 341.363281 278.867188 C 362.570312 276.414062 381.550781 270.410156 397.984375 260.921875 C 400.679688 259.367188 403.285156 257.722656 405.8125 256.003906 C 403.285156 254.289062 400.679688 252.640625 397.984375 251.085938 C 381.550781 241.597656 362.574219 235.59375 341.363281 233.136719 Z M 341.363281 233.136719 " style=" stroke:none;fill-rule:nonzero;fill:rgb(100%,62.352941%,0%);fill-opacity:1;" />
<path d="M 283.671875 263.417969 C 287.476562 267.90625 291.628906 273.125 295.839844 278.980469 C 302.949219 279.695312 310.625 280.148438 318.65625 280.148438 C 326.484375 280.148438 334.054688 279.714844 341.363281 278.867188 C 328.226562 269.09375 314.464844 261.613281 302.03125 256.003906 C 295.441406 258.976562 289.222656 261.429688 283.671875 263.417969 Z M 283.671875 263.417969 " style=" stroke:none;fill-rule:nonzero;fill:rgb(100%,39.215686%,10.196078%);fill-opacity:1;" />
<path d="M 295.839844 233.023438 C 291.628906 238.878906 287.476562 244.101562 283.671875 248.589844 C 289.222656 250.578125 295.441406 253.03125 302.03125 256.003906 C 314.464844 250.394531 328.226562 242.914062 341.363281 233.136719 C 334.054688 232.289062 326.484375 231.859375 318.65625 231.859375 C 310.625 231.859375 302.949219 232.3125 295.839844 233.023438 Z M 295.839844 233.023438 " style=" stroke:none;fill-rule:nonzero;fill:rgb(100%,39.215686%,10.196078%);fill-opacity:1;" />
<path d="M 283.671875 263.417969 C 289.222656 261.429688 295.441406 258.976562 302.03125 256.003906 C 295.441406 253.03125 289.222656 250.578125 283.671875 248.589844 C 287.476562 244.101562 291.628906 238.878906 295.839844 233.023438 C 288.652344 233.746094 282.050781 234.730469 276.253906 235.78125 C 277.308594 229.972656 278.296875 223.347656 279.019531 216.140625 C 273.148438 220.359375 267.914062 224.519531 263.417969 228.335938 C 261.429688 222.78125 258.976562 216.5625 256.003906 209.972656 C 253.03125 216.5625 250.578125 222.78125 248.589844 228.335938 C 244.09375 224.519531 238.859375 220.359375 232.988281 216.140625 C 233.710938 223.347656 234.695312 229.972656 235.753906 235.78125 C 229.957031 234.730469 223.355469 233.746094 216.167969 233.023438 C 220.378906 238.878906 224.527344 244.101562 228.335938 248.589844 C 222.785156 250.578125 216.5625 253.03125 209.976562 256.003906 C 216.566406 258.976562 222.785156 261.429688 228.335938 263.417969 C 224.527344 267.90625 220.378906 273.128906 216.167969 278.980469 C 223.355469 278.261719 229.957031 277.273438 235.753906 276.226562 C 234.699219 282.035156 233.710938 288.660156 232.988281 295.863281 C 238.859375 291.644531 244.09375 287.484375 248.589844 283.671875 C 250.578125 289.222656 253.03125 295.441406 256.003906 302.03125 C 258.976562 295.441406 261.429688 289.222656 263.417969 283.671875 C 267.914062 287.484375 273.148438 291.644531 279.019531 295.863281 C 278.296875 288.660156 277.308594 282.035156 276.253906 276.226562 C 282.050781 277.277344 288.652344 278.261719 295.839844 278.980469 C 291.628906 273.125 287.476562 267.90625 283.671875 263.417969 Z M 283.671875 263.417969 " style=" stroke:none;fill-rule:nonzero;fill:rgb(100%,52.156863%,59.215686%);fill-opacity:1;" />
<path d="M 283.671875 263.417969 C 289.222656 261.429688 295.441406 258.976562 302.03125 256.003906 C 295.441406 253.03125 289.222656 250.578125 283.671875 248.589844 C 287.476562 244.101562 291.628906 238.878906 295.839844 233.023438 C 288.652344 233.746094 282.050781 234.730469 276.253906 235.78125 C 277.308594 229.972656 278.296875 223.347656 279.019531 216.140625 C 273.148438 220.359375 267.914062 224.519531 263.417969 228.335938 C 261.429688 222.78125 258.976562 216.5625 256.003906 209.972656 L 256.003906 302.03125 C 258.976562 295.441406 261.429688 289.222656 263.417969 283.671875 C 267.914062 287.484375 273.148438 291.648438 279.019531 295.863281 C 278.296875 288.660156 277.308594 282.035156 276.253906 276.226562 C 282.050781 277.277344 288.652344 278.261719 295.839844 278.980469 C 291.628906 273.125 287.476562 267.90625 283.671875 263.417969 Z M 283.671875 263.417969 " style=" stroke:none;fill-rule:nonzero;fill:rgb(100%,21.176471%,21.176471%);fill-opacity:1;" />
<path d="M 278.878906 170.628906 C 276.679688 151.800781 271.398438 132.167969 260.921875 114.023438 C 259.367188 111.328125 257.71875 108.722656 256.003906 106.191406 L 256.003906 209.972656 C 261.613281 197.535156 269.097656 183.769531 278.878906 170.628906 Z M 278.878906 170.628906 " style=" stroke:none;fill-rule:nonzero;fill:rgb(100%,62.352941%,0%);fill-opacity:1;" />
<path d="M 256.003906 302.03125 L 256.003906 405.816406 C 257.71875 403.285156 259.367188 400.679688 260.921875 397.988281 C 271.398438 379.839844 276.679688 360.207031 278.878906 341.375 C 269.097656 328.238281 261.613281 314.472656 256.003906 302.03125 Z M 256.003906 302.03125 " style=" stroke:none;fill-rule:nonzero;fill:rgb(100%,62.352941%,0%);fill-opacity:1;" />
<path d="M 308.953125 58.386719 C 290.691406 26.234375 267.605469 5.257812 266.007812 3.828125 C 263.160156 1.277344 259.582031 0.00390625 256.003906 0.00390625 L 256.003906 106.191406 C 270.316406 85.089844 289.882812 69.578125 308.953125 58.386719 Z M 308.953125 58.386719 " style=" stroke:none;fill-rule:nonzero;fill:rgb(15.294118%,69.803922%,92.156863%);fill-opacity:1;" />
<path d="M 256.003906 405.816406 L 256.003906 512.003906 C 259.582031 512.003906 263.160156 510.726562 266.007812 508.179688 C 267.605469 506.75 290.691406 485.773438 308.953125 453.621094 C 289.882812 442.429688 270.316406 426.917969 256.003906 405.816406 Z M 256.003906 405.816406 " style=" stroke:none;fill-rule:nonzero;fill:rgb(15.294118%,69.803922%,92.156863%);fill-opacity:1;" />
</g>
</svg>