<svg xmlns="http://www.w3.org/2000/svg" height="512pt" version="1.1" viewBox="0 0 512 512.003" width="512pt">
<g id="surface1">
<path d="M 508.179688 245.992188 C 506.75 244.398438 485.773438 221.3125 453.617188 203.050781 C 472.332031 171.15625 478.957031 140.675781 479.394531 138.578125 C 480.964844 131.097656 476.652344 123.632812 469.386719 121.246094 C 468.15625 120.84375 438.804688 111.355469 402.0625 111.355469 C 401.59375 111.355469 401.132812 111.371094 400.667969 111.375 C 400.933594 74.378906 391.421875 44.648438 390.753906 42.613281 C 388.375 35.347656 380.898438 31.039062 373.425781 32.605469 C 371.328125 33.046875 340.847656 39.671875 308.953125 58.386719 C 290.691406 26.234375 267.601562 5.253906 266.007812 3.824219 C 260.3125 -1.273438 251.691406 -1.273438 245.996094 3.824219 C 244.402344 5.253906 221.316406 26.230469 203.050781 58.382812 C 171.160156 39.671875 140.675781 33.046875 138.582031 32.605469 C 131.097656 31.039062 123.632812 35.347656 121.25 42.613281 C 120.582031 44.648438 111.070312 74.378906 111.335938 111.375 C 110.871094 111.371094 110.410156 111.355469 109.941406 111.355469 C 73.203125 111.355469 43.847656 120.84375 42.617188 121.246094 C 35.351562 123.628906 31.039062 131.097656 32.609375 138.578125 C 33.046875 140.675781 39.671875 171.15625 58.382812 203.050781 C 26.234375 221.3125 5.253906 244.398438 3.828125 245.996094 C -1.273438 251.691406 -1.273438 260.3125 3.828125 266.007812 C 5.253906 267.601562 26.234375 290.6875 58.382812 308.953125 C 39.671875 340.84375 33.046875 371.324219 32.609375 373.421875 C 31.039062 380.90625 35.347656 388.371094 42.613281 390.753906 C 43.84375 391.15625 73.195312 400.644531 109.945312 400.644531 C 110.414062 400.644531 110.871094 400.628906 111.335938 400.628906 C 111.070312 437.621094 120.582031 467.355469 121.25 469.390625 C 123.304688 475.652344 129.132812 479.71875 135.492188 479.71875 C 136.511719 479.71875 137.546875 479.613281 138.582031 479.394531 C 140.675781 478.957031 171.160156 472.332031 203.050781 453.621094 C 221.316406 485.769531 244.402344 506.75 245.996094 508.179688 C 248.84375 510.726562 252.421875 512.003906 256 512.003906 C 259.582031 512.003906 263.160156 510.726562 266.007812 508.179688 C 267.601562 506.75 290.6875 485.773438 308.953125 453.621094 C 340.84375 472.332031 371.328125 478.957031 373.421875 479.394531 C 374.457031 479.613281 375.492188 479.71875 376.511719 479.71875 C 382.871094 479.71875 388.699219 475.652344 390.753906 469.390625 C 391.421875 467.355469 400.933594 437.621094 400.664062 400.628906 C 401.132812 400.632812 401.589844 400.644531 402.058594 400.644531 C 438.804688 400.644531 468.15625 391.160156 469.386719 390.753906 C 476.652344 388.371094 480.960938 380.90625 479.390625 373.421875 C 478.953125 371.324219 472.328125 340.84375 453.617188 308.953125 C 485.769531 290.6875 506.746094 267.601562 508.175781 266.007812 C 513.277344 260.3125 513.277344 251.691406 508.179688 245.992188 Z M 402.0625 141.355469 C 419.679688 141.355469 435.527344 143.917969 446.183594 146.210938 C 442.609375 157.34375 436.304688 173.800781 426.347656 190.222656 C 413.730469 185.511719 400.089844 182.136719 385.742188 181.09375 C 392.007812 168.164062 395.902344 154.675781 398.136719 141.40625 C 399.433594 141.378906 400.742188 141.355469 402.0625 141.355469 Z M 328.371094 349.273438 C 326.109375 338.433594 322.652344 328.125 318.5 318.5 C 328.128906 322.652344 338.441406 326.109375 349.28125 328.371094 C 351.484375 331.355469 353.554688 334.46875 355.441406 337.734375 C 360.757812 346.945312 364.378906 356.796875 366.75 366.761719 C 356.101562 364.222656 346.402344 360.445312 337.734375 355.4375 C 334.46875 353.554688 331.355469 351.480469 328.371094 349.273438 Z M 301.253906 376.5 C 301.253906 387.128906 299.464844 397.46875 296.535156 407.277344 C 289.097656 400.246094 282.378906 392.1875 277.0625 382.984375 C 275.179688 379.71875 273.515625 376.367188 272.039062 372.964844 C 275.5 362.445312 277.664062 351.785156 278.878906 341.371094 C 285.136719 349.78125 292.339844 357.933594 300.597656 365.3125 C 301.015625 369 301.253906 372.730469 301.253906 376.5 Z M 215.46875 407.277344 C 212.542969 397.464844 210.753906 387.128906 210.753906 376.5 C 210.753906 372.730469 210.992188 368.996094 211.410156 365.3125 C 219.667969 357.933594 226.867188 349.785156 233.125 341.375 C 234.34375 351.789062 236.503906 362.453125 239.96875 372.972656 C 238.488281 376.371094 236.824219 379.71875 234.941406 382.984375 C 229.625 392.1875 222.910156 400.246094 215.46875 407.277344 Z M 174.273438 355.441406 C 165.589844 360.449219 155.882812 364.230469 145.222656 366.769531 C 147.601562 356.816406 151.234375 346.964844 156.566406 337.734375 C 158.449219 334.46875 160.523438 331.351562 162.730469 328.367188 C 173.570312 326.105469 183.878906 322.652344 193.507812 318.496094 C 189.351562 328.125 185.898438 338.4375 183.632812 349.273438 C 180.652344 351.484375 177.539062 353.554688 174.273438 355.441406 Z M 183.632812 162.730469 C 185.898438 173.566406 189.351562 183.878906 193.503906 193.503906 C 183.878906 189.351562 173.566406 185.894531 162.726562 183.632812 C 160.519531 180.648438 158.449219 177.535156 156.566406 174.269531 C 151.246094 165.058594 147.625 155.207031 145.257812 145.238281 C 155.902344 147.78125 165.601562 151.558594 174.273438 156.5625 C 177.539062 158.449219 180.652344 160.519531 183.632812 162.730469 Z M 210.753906 135.5 C 210.753906 124.859375 212.546875 114.511719 215.476562 104.691406 C 222.902344 111.730469 229.613281 119.796875 234.941406 129.019531 C 236.824219 132.285156 238.488281 135.636719 239.964844 139.039062 C 236.503906 149.558594 234.34375 160.214844 233.125 170.625 C 226.867188 162.21875 219.667969 154.070312 211.410156 146.691406 C 210.992188 143.003906 210.753906 139.273438 210.753906 135.5 Z M 296.539062 104.726562 C 299.464844 114.535156 301.253906 124.871094 301.253906 135.5 C 301.253906 139.269531 301.015625 143.003906 300.597656 146.6875 C 292.339844 154.066406 285.140625 162.214844 278.878906 170.625 C 277.664062 160.210938 275.5 149.550781 272.035156 139.03125 C 273.515625 135.632812 275.179688 132.285156 277.0625 129.019531 C 282.378906 119.816406 289.097656 111.757812 296.539062 104.726562 Z M 337.734375 156.5625 C 346.414062 151.554688 356.121094 147.769531 366.78125 145.230469 C 364.402344 155.1875 360.769531 165.039062 355.441406 174.269531 C 353.554688 177.535156 351.484375 180.648438 349.277344 183.632812 C 338.4375 185.890625 328.128906 189.347656 318.5 193.503906 C 322.652344 183.875 326.109375 173.566406 328.371094 162.726562 C 331.355469 160.519531 334.46875 158.449219 337.734375 156.5625 Z M 135.5 210.75 C 139.273438 210.75 143.003906 210.988281 146.691406 211.40625 C 154.074219 219.667969 162.226562 226.871094 170.640625 233.136719 C 159.46875 234.429688 148.925781 236.71875 139.039062 239.976562 C 135.5625 238.460938 132.21875 236.785156 129.019531 234.9375 C 119.804688 229.617188 111.742188 222.890625 104.703125 215.441406 C 114.507812 212.53125 124.847656 210.75 135.5 210.75 Z M 129.019531 277.0625 C 132.21875 275.214844 135.5625 273.539062 139.039062 272.027344 C 148.925781 275.28125 159.46875 277.570312 170.640625 278.867188 C 162.226562 285.132812 154.070312 292.335938 146.6875 300.597656 C 143.003906 301.015625 139.273438 301.25 135.5 301.25 C 124.871094 301.25 114.535156 299.460938 104.726562 296.535156 C 111.757812 289.097656 119.816406 282.378906 129.019531 277.0625 Z M 376.5 301.25 C 372.730469 301.25 369 301.015625 365.3125 300.59375 C 357.929688 292.332031 349.777344 285.128906 341.363281 278.867188 C 352.535156 277.574219 363.082031 275.28125 372.96875 272.027344 C 376.445312 273.539062 379.785156 275.21875 382.984375 277.0625 C 392.199219 282.382812 400.265625 289.109375 407.300781 296.558594 C 397.496094 299.472656 387.152344 301.25 376.5 301.25 Z M 382.984375 234.941406 C 379.785156 236.785156 376.445312 238.464844 372.96875 239.976562 C 363.082031 236.71875 352.535156 234.429688 341.363281 233.136719 C 349.78125 226.871094 357.933594 219.664062 365.320312 211.402344 C 369.003906 210.984375 372.730469 210.75 376.5 210.75 C 387.144531 210.75 397.492188 212.542969 407.3125 215.476562 C 400.277344 222.902344 392.210938 229.613281 382.984375 234.941406 Z M 365.8125 65.847656 C 368.28125 77.277344 371.050781 94.679688 370.636719 113.875 C 356.246094 116.28125 342.964844 120.414062 330.90625 126.257812 C 329.867188 111.9375 326.5 98.320312 321.804688 85.71875 C 338.222656 75.769531 354.683594 69.441406 365.8125 65.847656 Z M 256.003906 36.441406 C 263.84375 45.128906 274.921875 58.824219 284.160156 75.632812 C 273.789062 84.195312 264.0625 94.308594 256.003906 106.191406 C 247.941406 94.308594 238.214844 84.195312 227.847656 75.632812 C 237.085938 58.824219 248.164062 45.125 256.003906 36.441406 Z M 146.230469 65.824219 C 157.363281 69.402344 173.808594 75.703125 190.222656 85.65625 C 185.515625 98.273438 182.136719 111.914062 181.097656 126.261719 C 169.058594 120.421875 155.796875 116.292969 141.433594 113.886719 C 141.027344 94.6875 143.78125 77.265625 146.230469 65.824219 Z M 65.855469 146.207031 C 76.515625 143.914062 92.34375 141.355469 109.941406 141.355469 C 111.261719 141.355469 112.570312 141.378906 113.871094 141.40625 C 116.101562 154.675781 119.996094 168.164062 126.261719 181.09375 C 111.941406 182.132812 98.320312 185.5 85.71875 190.199219 C 75.777344 173.789062 69.453125 157.335938 65.855469 146.207031 Z M 36.421875 255.976562 C 45.082031 248.125 58.761719 237.03125 75.589844 227.792969 C 84.164062 238.183594 94.289062 247.925781 106.191406 256 C 94.308594 264.0625 84.195312 273.785156 75.632812 284.15625 C 58.808594 274.910156 45.097656 263.816406 36.421875 255.976562 Z M 109.945312 370.644531 C 92.34375 370.644531 76.511719 368.085938 65.855469 365.796875 C 69.453125 354.660156 75.777344 338.210938 85.71875 321.804688 C 98.320312 326.5 111.941406 329.867188 126.261719 330.90625 C 119.996094 343.835938 116.101562 357.324219 113.867188 370.59375 C 112.570312 370.621094 111.265625 370.644531 109.945312 370.644531 Z M 146.191406 446.152344 C 143.722656 434.722656 140.953125 417.324219 141.367188 398.128906 C 155.757812 395.722656 169.039062 391.589844 181.097656 385.742188 C 182.136719 400.066406 185.503906 413.683594 190.203125 426.285156 C 173.785156 436.230469 157.324219 442.558594 146.191406 446.152344 Z M 256.003906 475.558594 C 248.164062 466.871094 237.085938 453.175781 227.847656 436.371094 C 238.214844 427.808594 247.941406 417.695312 256.003906 405.8125 C 264.0625 417.695312 273.789062 427.808594 284.15625 436.371094 C 274.921875 453.175781 263.84375 466.875 256.003906 475.558594 Z M 365.78125 446.144531 C 354.648438 442.542969 338.203125 436.21875 321.804688 426.285156 C 326.5 413.683594 329.871094 400.066406 330.910156 385.742188 C 342.949219 391.578125 356.207031 395.707031 370.570312 398.117188 C 370.976562 417.292969 368.230469 434.699219 365.78125 446.144531 Z M 446.15625 365.8125 C 435.546875 368.101562 419.761719 370.644531 402.058594 370.644531 C 400.742188 370.644531 399.433594 370.621094 398.136719 370.59375 C 395.902344 357.324219 392.007812 343.835938 385.742188 330.90625 C 400.0625 329.867188 413.683594 326.5 426.285156 321.804688 C 436.234375 338.222656 442.558594 354.683594 446.15625 365.8125 Z M 436.414062 284.207031 C 427.84375 273.820312 417.71875 264.074219 405.8125 256.003906 C 417.699219 247.941406 427.808594 238.214844 436.375 227.847656 C 453.199219 237.089844 466.90625 248.183594 475.585938 256.023438 C 466.921875 263.875 453.242188 274.96875 436.414062 284.207031 Z M 436.414062 284.207031 " fill="currentcolor" />
</g>
</svg>